<svg id="visual" viewBox="0 0 900 600" width="900" height="600" xmlns="http://www.w3.org/2000/svg" xmlns:xlink="http://www.w3.org/1999/xlink" version="1.1"><rect width="900" height="600" fill="#f3f3f3"></rect><g><g transform="translate(417 569)"><path d="M0 -21.7L20.7 -6.7L12.8 17.6L-12.8 17.6L-20.7 -6.7Z" fill="#afcfff"></path></g><g transform="translate(100 564)"><path d="M0 -17L16.2 -5.3L10 13.8L-10 13.8L-16.2 -5.3Z" fill="#afcfff"></path></g><g transform="translate(354 361)"><path d="M0 -9L8.6 -2.8L5.3 7.3L-5.3 7.3L-8.6 -2.8Z" fill="#afcfff"></path></g><g transform="translate(364 277)"><path d="M0 -9L8.6 -2.8L5.3 7.3L-5.3 7.3L-8.6 -2.8Z" fill="#afcfff"></path></g><g transform="translate(866 255)"><path d="M0 -14L13.3 -4.3L8.2 11.3L-8.2 11.3L-13.3 -4.3Z" fill="#afcfff"></path></g><g transform="translate(460 220)"><path d="M0 -5L4.8 -1.5L2.9 4L-2.9 4L-4.8 -1.5Z" fill="#afcfff"></path></g><g transform="translate(148 429)"><path d="M0 -8L7.6 -2.5L4.7 6.5L-4.7 6.5L-7.6 -2.5Z" fill="#afcfff"></path></g><g transform="translate(93 352)"><path d="M0 -8L7.6 -2.5L4.7 6.5L-4.7 6.5L-7.6 -2.5Z" fill="#afcfff"></path></g><g transform="translate(192 295)"><path d="M0 -11L10.5 -3.4L6.5 8.9L-6.5 8.9L-10.5 -3.4Z" fill="#afcfff"></path></g><g transform="translate(442 458)"><path d="M0 -20L19 -6.2L11.8 16.2L-11.8 16.2L-19 -6.2Z" fill="#afcfff"></path></g><g transform="translate(61 271)"><path d="M0 -3L2.9 -0.9L1.8 2.4L-1.8 2.4L-2.9 -0.9Z" fill="#afcfff"></path></g><g transform="translate(353 42)"><path d="M0 -9L8.6 -2.8L5.3 7.3L-5.3 7.3L-8.6 -2.8Z" fill="#afcfff"></path></g><g transform="translate(769 402)"><path d="M0 -14L13.3 -4.3L8.2 11.3L-8.2 11.3L-13.3 -4.3Z" fill="#afcfff"></path></g><g transform="translate(729 440)"><path d="M0 -3L2.9 -0.9L1.8 2.4L-1.8 2.4L-2.9 -0.9Z" fill="#afcfff"></path></g><g transform="translate(598 308)"><path d="M0 -9L8.6 -2.8L5.3 7.3L-5.3 7.3L-8.6 -2.8Z" fill="#afcfff"></path></g><g transform="translate(65 175)"><path d="M0 -8L7.6 -2.5L4.7 6.5L-4.7 6.5L-7.6 -2.5Z" fill="#afcfff"></path></g><g transform="translate(888 578)"><path d="M0 -18L17.1 -5.6L10.6 14.6L-10.6 14.6L-17.1 -5.6Z" fill="#afcfff"></path></g><g transform="translate(891 392)"><path d="M0 -16L15.2 -4.9L9.4 12.9L-9.4 12.9L-15.2 -4.9Z" fill="#afcfff"></path></g><g transform="translate(491 337)"><path d="M0 -7L6.7 -2.2L4.1 5.7L-4.1 5.7L-6.7 -2.2Z" fill="#afcfff"></path></g><g transform="translate(557 33)"><path d="M0 -7L6.7 -2.2L4.1 5.7L-4.1 5.7L-6.7 -2.2Z" fill="#afcfff"></path></g><g transform="translate(283 127)"><path d="M0 -3L2.9 -0.9L1.8 2.4L-1.8 2.4L-2.9 -0.9Z" fill="#afcfff"></path></g><g transform="translate(22 59)"><path d="M0 -5L4.8 -1.5L2.9 4L-2.9 4L-4.8 -1.5Z" fill="#afcfff"></path></g><g transform="translate(76 413)"><path d="M0 -6L5.7 -1.9L3.5 4.9L-3.5 4.9L-5.7 -1.9Z" fill="#afcfff"></path></g><g transform="translate(705 44)"><path d="M0 -11L10.5 -3.4L6.5 8.9L-6.5 8.9L-10.5 -3.4Z" fill="#afcfff"></path></g><g transform="translate(1 158)"><path d="M0 -20L19 -6.2L11.8 16.2L-11.8 16.2L-19 -6.2Z" fill="#afcfff"></path></g><g transform="translate(257 526)"><path d="M0 -13L12.4 -4L7.6 10.5L-7.6 10.5L-12.4 -4Z" fill="#afcfff"></path></g><g transform="translate(703 136)"><path d="M0 -10L9.5 -3.1L5.9 8.1L-5.9 8.1L-9.5 -3.1Z" fill="#afcfff"></path></g><g transform="translate(696 234)"><path d="M0 -10L9.5 -3.1L5.9 8.1L-5.9 8.1L-9.5 -3.1Z" fill="#afcfff"></path></g><g transform="translate(574 79)"><path d="M0 -4L3.8 -1.2L2.4 3.2L-2.4 3.2L-3.8 -1.2Z" fill="#afcfff"></path></g><g transform="translate(896 203)"><path d="M0 -19L18.1 -5.9L11.2 15.4L-11.2 15.4L-18.1 -5.9Z" fill="#afcfff"></path></g><g transform="translate(842 200)"><path d="M0 -16L15.2 -4.9L9.4 12.9L-9.4 12.9L-15.2 -4.9Z" fill="#afcfff"></path></g><g transform="translate(854 496)"><path d="M0 -11L10.5 -3.4L6.5 8.9L-6.5 8.9L-10.5 -3.4Z" fill="#afcfff"></path></g><g transform="translate(19 403)"><path d="M0 -18L17.1 -5.6L10.6 14.6L-10.6 14.6L-17.1 -5.6Z" fill="#afcfff"></path></g><g transform="translate(110 289)"><path d="M0 -8L7.6 -2.5L4.7 6.5L-4.7 6.5L-7.6 -2.5Z" fill="#afcfff"></path></g><g transform="translate(890 6)"><path d="M0 -16L15.2 -4.9L9.4 12.9L-9.4 12.9L-15.2 -4.9Z" fill="#afcfff"></path></g><g transform="translate(103 15)"><path d="M0 -5L4.8 -1.5L2.9 4L-2.9 4L-4.8 -1.5Z" fill="#afcfff"></path></g><g transform="translate(738 76)"><path d="M0 -9L8.6 -2.8L5.3 7.3L-5.3 7.3L-8.6 -2.8Z" fill="#afcfff"></path></g><g transform="translate(802 477)"><path d="M0 -20L19 -6.2L11.8 16.2L-11.8 16.2L-19 -6.2Z" fill="#afcfff"></path></g><g transform="translate(678 330)"><path d="M0 -11L10.5 -3.4L6.5 8.9L-6.5 8.9L-10.5 -3.4Z" fill="#afcfff"></path></g><g transform="translate(277 25)"><path d="M0 -17L16.2 -5.3L10 13.8L-10 13.8L-16.2 -5.3Z" fill="#afcfff"></path></g><g transform="translate(751 221)"><path d="M0 -20L19 -6.2L11.8 16.2L-11.8 16.2L-19 -6.2Z" fill="#afcfff"></path></g><g transform="translate(802 45)"><path d="M0 -10L9.5 -3.1L5.9 8.1L-5.9 8.1L-9.5 -3.1Z" fill="#afcfff"></path></g><g transform="translate(790 167)"><path d="M0 -19L18.1 -5.9L11.2 15.4L-11.2 15.4L-18.1 -5.9Z" fill="#afcfff"></path></g><g transform="translate(766 275)"><path d="M0 -19L18.1 -5.9L11.2 15.4L-11.2 15.4L-18.1 -5.9Z" fill="#afcfff"></path></g><g transform="translate(179 363)"><path d="M0 -9L8.6 -2.8L5.3 7.3L-5.3 7.3L-8.6 -2.8Z" fill="#afcfff"></path></g><g transform="translate(664 503)"><path d="M0 -7L6.7 -2.2L4.1 5.7L-4.1 5.7L-6.7 -2.2Z" fill="#afcfff"></path></g><g transform="translate(426 100)"><path d="M0 -4L3.8 -1.2L2.4 3.2L-2.4 3.2L-3.8 -1.2Z" fill="#afcfff"></path></g><g transform="translate(567 193)"><path d="M0 -15L14.3 -4.6L8.8 12.1L-8.8 12.1L-14.3 -4.6Z" fill="#afcfff"></path></g><g transform="translate(612 496)"><path d="M0 -2L1.9 -0.6L1.2 1.6L-1.2 1.6L-1.9 -0.6Z" fill="#afcfff"></path></g><g transform="translate(461 525)"><path d="M0 -6L5.7 -1.9L3.5 4.9L-3.5 4.9L-5.7 -1.9Z" fill="#afcfff"></path></g><g transform="translate(415 25)"><path d="M0 -18L17.1 -5.6L10.6 14.6L-10.6 14.6L-17.1 -5.6Z" fill="#afcfff"></path></g><g transform="translate(590 435)"><path d="M0 -7L6.7 -2.2L4.1 5.7L-4.1 5.7L-6.7 -2.2Z" fill="#afcfff"></path></g><g transform="translate(852 98)"><path d="M0 -8L7.6 -2.5L4.7 6.5L-4.7 6.5L-7.6 -2.5Z" fill="#afcfff"></path></g><g transform="translate(706 546)"><path d="M0 -19L18.1 -5.9L11.2 15.4L-11.2 15.4L-18.1 -5.9Z" fill="#afcfff"></path></g><g transform="translate(85 221)"><path d="M0 -13L12.4 -4L7.6 10.5L-7.6 10.5L-12.4 -4Z" fill="#afcfff"></path></g><g transform="translate(432 372)"><path d="M0 -3L2.9 -0.9L1.8 2.4L-1.8 2.4L-2.9 -0.9Z" fill="#afcfff"></path></g><g transform="translate(388 184)"><path d="M0 -2L1.9 -0.6L1.2 1.6L-1.2 1.6L-1.9 -0.6Z" fill="#afcfff"></path></g><g transform="translate(849 419)"><path d="M0 -6L5.7 -1.9L3.5 4.9L-3.5 4.9L-5.7 -1.9Z" fill="#afcfff"></path></g><g transform="translate(830 559)"><path d="M0 -20L19 -6.2L11.8 16.2L-11.8 16.2L-19 -6.2Z" fill="#afcfff"></path></g><g transform="translate(631 579)"><path d="M0 -8L7.6 -2.5L4.7 6.5L-4.7 6.5L-7.6 -2.5Z" fill="#afcfff"></path></g><g transform="translate(651 427)"><path d="M0 -16L15.2 -4.9L9.4 12.9L-9.4 12.9L-15.2 -4.9Z" fill="#afcfff"></path></g><g transform="translate(340 115)"><path d="M0 -17L16.2 -5.3L10 13.8L-10 13.8L-16.2 -5.3Z" fill="#afcfff"></path></g><g transform="translate(638 85)"><path d="M0 -8L7.6 -2.5L4.7 6.5L-4.7 6.5L-7.6 -2.5Z" fill="#afcfff"></path></g><g transform="translate(712 366)"><path d="M0 -14L13.3 -4.3L8.2 11.3L-8.2 11.3L-13.3 -4.3Z" fill="#afcfff"></path></g><g transform="translate(887 450)"><path d="M0 -4L3.8 -1.2L2.4 3.2L-2.4 3.2L-3.8 -1.2Z" fill="#afcfff"></path></g><g transform="translate(357 232)"><path d="M0 -19L18.1 -5.9L11.2 15.4L-11.2 15.4L-18.1 -5.9Z" fill="#afcfff"></path></g><g transform="translate(278 482)"><path d="M0 -7L6.7 -2.2L4.1 5.7L-4.1 5.7L-6.7 -2.2Z" fill="#afcfff"></path></g><g transform="translate(311 399)"><path d="M0 -3L2.9 -0.9L1.8 2.4L-1.8 2.4L-2.9 -0.9Z" fill="#afcfff"></path></g><g transform="translate(866 159)"><path d="M0 -8L7.6 -2.5L4.7 6.5L-4.7 6.5L-7.6 -2.5Z" fill="#afcfff"></path></g><g transform="translate(852 316)"><path d="M0 -4L3.8 -1.2L2.4 3.2L-2.4 3.2L-3.8 -1.2Z" fill="#afcfff"></path></g><g transform="translate(614 260)"><path d="M0 -16L15.2 -4.9L9.4 12.9L-9.4 12.9L-15.2 -4.9Z" fill="#afcfff"></path></g><g transform="translate(547 582)"><path d="M0 -10L9.5 -3.1L5.9 8.1L-5.9 8.1L-9.5 -3.1Z" fill="#afcfff"></path></g><g transform="translate(201 245)"><path d="M0 -12L11.4 -3.7L7.1 9.7L-7.1 9.7L-11.4 -3.7Z" fill="#afcfff"></path></g><g transform="translate(193 63)"><path d="M0 -11L10.5 -3.4L6.5 8.9L-6.5 8.9L-10.5 -3.4Z" fill="#afcfff"></path></g><g transform="translate(205 524)"><path d="M0 -6L5.7 -1.9L3.5 4.9L-3.5 4.9L-5.7 -1.9Z" fill="#afcfff"></path></g><g transform="translate(398 463)"><path d="M0 -12L11.4 -3.7L7.1 9.7L-7.1 9.7L-11.4 -3.7Z" fill="#afcfff"></path></g><g transform="translate(262 183)"><path d="M0 -14L13.3 -4.3L8.2 11.3L-8.2 11.3L-13.3 -4.3Z" fill="#afcfff"></path></g><g transform="translate(387 537)"><path d="M0 -17L16.2 -5.3L10 13.8L-10 13.8L-16.2 -5.3Z" fill="#afcfff"></path></g><g transform="translate(348 446)"><path d="M0 -17L16.2 -5.3L10 13.8L-10 13.8L-16.2 -5.3Z" fill="#afcfff"></path></g><g transform="translate(189 116)"><path d="M0 -8L7.6 -2.5L4.7 6.5L-4.7 6.5L-7.6 -2.5Z" fill="#afcfff"></path></g><g transform="translate(595 126)"><path d="M0 -17L16.2 -5.3L10 13.8L-10 13.8L-16.2 -5.3Z" fill="#afcfff"></path></g><g transform="translate(551 141)"><path d="M0 -13L12.4 -4L7.6 10.5L-7.6 10.5L-12.4 -4Z" fill="#afcfff"></path></g><g transform="translate(231 27)"><path d="M0 -16L15.2 -4.9L9.4 12.9L-9.4 12.9L-15.2 -4.9Z" fill="#afcfff"></path></g><g transform="translate(799 95)"><path d="M0 -8L7.6 -2.5L4.7 6.5L-4.7 6.5L-7.6 -2.5Z" fill="#afcfff"></path></g><g transform="translate(507 443)"><path d="M0 -20L19 -6.2L11.8 16.2L-11.8 16.2L-19 -6.2Z" fill="#afcfff"></path></g><g transform="translate(281 70)"><path d="M0 -9L8.6 -2.8L5.3 7.3L-5.3 7.3L-8.6 -2.8Z" fill="#afcfff"></path></g><g transform="translate(14 247)"><path d="M0 -14L13.3 -4.3L8.2 11.3L-8.2 11.3L-13.3 -4.3Z" fill="#afcfff"></path></g><g transform="translate(504 225)"><path d="M0 -12L11.4 -3.7L7.1 9.7L-7.1 9.7L-11.4 -3.7Z" fill="#afcfff"></path></g><g transform="translate(60 476)"><path d="M0 -15L14.3 -4.6L8.8 12.1L-8.8 12.1L-14.3 -4.6Z" fill="#afcfff"></path></g><g transform="translate(501 73)"><path d="M0 -11L10.5 -3.4L6.5 8.9L-6.5 8.9L-10.5 -3.4Z" fill="#afcfff"></path></g><g transform="translate(299 220)"><path d="M0 -9L8.6 -2.8L5.3 7.3L-5.3 7.3L-8.6 -2.8Z" fill="#afcfff"></path></g><g transform="translate(216 424)"><path d="M0 -8L7.6 -2.5L4.7 6.5L-4.7 6.5L-7.6 -2.5Z" fill="#afcfff"></path></g><g transform="translate(14 571)"><path d="M0 -18L17.1 -5.6L10.6 14.6L-10.6 14.6L-17.1 -5.6Z" fill="#afcfff"></path></g><g transform="translate(528 296)"><path d="M0 -18L17.1 -5.6L10.6 14.6L-10.6 14.6L-17.1 -5.6Z" fill="#afcfff"></path></g><g transform="translate(164 15)"><path d="M0 -20L19 -6.2L11.8 16.2L-11.8 16.2L-19 -6.2Z" fill="#afcfff"></path></g><g transform="translate(161 204)"><path d="M0 -9L8.6 -2.8L5.3 7.3L-5.3 7.3L-8.6 -2.8Z" fill="#afcfff"></path></g><g transform="translate(513 509)"><path d="M0 -3L2.9 -0.9L1.8 2.4L-1.8 2.4L-2.9 -0.9Z" fill="#afcfff"></path></g><g transform="translate(682 2)"><path d="M0 -11L10.5 -3.4L6.5 8.9L-6.5 8.9L-10.5 -3.4Z" fill="#afcfff"></path></g><g transform="translate(635 339)"><path d="M0 -19L18.1 -5.9L11.2 15.4L-11.2 15.4L-18.1 -5.9Z" fill="#afcfff"></path></g><g transform="translate(511 391)"><path d="M0 -16L15.2 -4.9L9.4 12.9L-9.4 12.9L-15.2 -4.9Z" fill="#afcfff"></path></g><g transform="translate(688 178)"><path d="M0 -16L15.2 -4.9L9.4 12.9L-9.4 12.9L-15.2 -4.9Z" fill="#afcfff"></path></g><g transform="translate(571 344)"><path d="M0 -12L11.4 -3.7L7.1 9.7L-7.1 9.7L-11.4 -3.7Z" fill="#afcfff"></path></g><g transform="translate(20 508)"><path d="M0 -9L8.6 -2.8L5.3 7.3L-5.3 7.3L-8.6 -2.8Z" fill="#afcfff"></path></g><g transform="translate(398 305)"><path d="M0 -10L9.5 -3.1L5.9 8.1L-5.9 8.1L-9.5 -3.1Z" fill="#afcfff"></path></g><g transform="translate(263 341)"><path d="M0 -2L1.9 -0.6L1.2 1.6L-1.2 1.6L-1.9 -0.6Z" fill="#afcfff"></path></g><g transform="translate(391 141)"><path d="M0 -20L19 -6.2L11.8 16.2L-11.8 16.2L-19 -6.2Z" fill="#afcfff"></path></g><g transform="translate(129 169)"><path d="M0 -6L5.7 -1.9L3.5 4.9L-3.5 4.9L-5.7 -1.9Z" fill="#afcfff"></path></g><g transform="translate(389 399)"><path d="M0 -14L13.3 -4.3L8.2 11.3L-8.2 11.3L-13.3 -4.3Z" fill="#afcfff"></path></g><g transform="translate(636 204)"><path d="M0 -8L7.6 -2.5L4.7 6.5L-4.7 6.5L-7.6 -2.5Z" fill="#afcfff"></path></g><g transform="translate(149 534)"><path d="M0 -17L16.2 -5.3L10 13.8L-10 13.8L-16.2 -5.3Z" fill="#afcfff"></path></g><g transform="translate(97 506)"><path d="M0 -19L18.1 -5.9L11.2 15.4L-11.2 15.4L-18.1 -5.9Z" fill="#afcfff"></path></g><g transform="translate(484 137)"><path d="M0 -19L18.1 -5.9L11.2 15.4L-11.2 15.4L-18.1 -5.9Z" fill="#afcfff"></path></g><g transform="translate(108 118)"><path d="M0 -15L14.3 -4.6L8.8 12.1L-8.8 12.1L-14.3 -4.6Z" fill="#afcfff"></path></g><g transform="translate(650 143)"><path d="M0 -3L2.9 -0.9L1.8 2.4L-1.8 2.4L-2.9 -0.9Z" fill="#afcfff"></path></g><g transform="translate(747 518)"><path d="M0 -6L5.7 -1.9L3.5 4.9L-3.5 4.9L-5.7 -1.9Z" fill="#afcfff"></path></g><g transform="translate(72 85)"><path d="M0 -14L13.3 -4.3L8.2 11.3L-8.2 11.3L-13.3 -4.3Z" fill="#afcfff"></path></g><g transform="translate(849 23)"><path d="M0 -11L10.5 -3.4L6.5 8.9L-6.5 8.9L-10.5 -3.4Z" fill="#afcfff"></path></g><g transform="translate(892 118)"><path d="M0 -6L5.7 -1.9L3.5 4.9L-3.5 4.9L-5.7 -1.9Z" fill="#afcfff"></path></g><g transform="translate(21 450)"><path d="M0 -12L11.4 -3.7L7.1 9.7L-7.1 9.7L-11.4 -3.7Z" fill="#afcfff"></path></g><g transform="translate(809 239)"><path d="M0 -14L13.3 -4.3L8.2 11.3L-8.2 11.3L-13.3 -4.3Z" fill="#afcfff"></path></g><g transform="translate(819 369)"><path d="M0 -12L11.4 -3.7L7.1 9.7L-7.1 9.7L-11.4 -3.7Z" fill="#afcfff"></path></g><g transform="translate(322 562)"><path d="M0 -8L7.6 -2.5L4.7 6.5L-4.7 6.5L-7.6 -2.5Z" fill="#afcfff"></path></g><g transform="translate(349 491)"><path d="M0 -5L4.8 -1.5L2.9 4L-2.9 4L-4.8 -1.5Z" fill="#afcfff"></path></g><g transform="translate(543 255)"><path d="M0 -5L4.8 -1.5L2.9 4L-2.9 4L-4.8 -1.5Z" fill="#afcfff"></path></g><g transform="translate(723 597)"><path d="M0 -11L10.5 -3.4L6.5 8.9L-6.5 8.9L-10.5 -3.4Z" fill="#afcfff"></path></g><g transform="translate(749 16)"><path d="M0 -13L12.4 -4L7.6 10.5L-7.6 10.5L-12.4 -4Z" fill="#afcfff"></path></g><g transform="translate(517 179)"><path d="M0 -4L3.8 -1.2L2.4 3.2L-2.4 3.2L-3.8 -1.2Z" fill="#afcfff"></path></g><g transform="translate(12 321)"><path d="M0 -11L10.5 -3.4L6.5 8.9L-6.5 8.9L-10.5 -3.4Z" fill="#afcfff"></path></g><g transform="translate(898 335)"><path d="M0 -19L18.1 -5.9L11.2 15.4L-11.2 15.4L-18.1 -5.9Z" fill="#afcfff"></path></g><g transform="translate(894 290)"><path d="M0 -3L2.9 -0.9L1.8 2.4L-1.8 2.4L-2.9 -0.9Z" fill="#afcfff"></path></g><g transform="translate(404 250)"><path d="M0 -4L3.8 -1.2L2.4 3.2L-2.4 3.2L-3.8 -1.2Z" fill="#afcfff"></path></g><g transform="translate(182 590)"><path d="M0 -15L14.3 -4.6L8.8 12.1L-8.8 12.1L-14.3 -4.6Z" fill="#afcfff"></path></g><g transform="translate(265 394)"><path d="M0 -5L4.8 -1.5L2.9 4L-2.9 4L-4.8 -1.5Z" fill="#afcfff"></path></g><g transform="translate(382 596)"><path d="M0 -16L15.2 -4.9L9.4 12.9L-9.4 12.9L-15.2 -4.9Z" fill="#afcfff"></path></g><g transform="translate(212 188)"><path d="M0 -20L19 -6.2L11.8 16.2L-11.8 16.2L-19 -6.2Z" fill="#afcfff"></path></g><g transform="translate(186 476)"><path d="M0 -16L15.2 -4.9L9.4 12.9L-9.4 12.9L-15.2 -4.9Z" fill="#afcfff"></path></g><g transform="translate(569 506)"><path d="M0 -6L5.7 -1.9L3.5 4.9L-3.5 4.9L-5.7 -1.9Z" fill="#afcfff"></path></g><g transform="translate(235 589)"><path d="M0 -15L14.3 -4.6L8.8 12.1L-8.8 12.1L-14.3 -4.6Z" fill="#afcfff"></path></g><g transform="translate(488 7)"><path d="M0 -9L8.6 -2.8L5.3 7.3L-5.3 7.3L-8.6 -2.8Z" fill="#afcfff"></path></g><g transform="translate(141 74)"><path d="M0 -2L1.9 -0.6L1.2 1.6L-1.2 1.6L-1.9 -0.6Z" fill="#afcfff"></path></g><g transform="translate(761 355)"><path d="M0 -15L14.3 -4.6L8.8 12.1L-8.8 12.1L-14.3 -4.6Z" fill="#afcfff"></path></g><g transform="translate(296 302)"><path d="M0 -14L13.3 -4.3L8.2 11.3L-8.2 11.3L-13.3 -4.3Z" fill="#afcfff"></path></g><g transform="translate(727 309)"><path d="M0 -18L17.1 -5.6L10.6 14.6L-10.6 14.6L-17.1 -5.6Z" fill="#afcfff"></path></g><g transform="translate(763 563)"><path d="M0 -3L2.9 -0.9L1.8 2.4L-1.8 2.4L-2.9 -0.9Z" fill="#afcfff"></path></g><g transform="translate(47 124)"><path d="M0 -16L15.2 -4.9L9.4 12.9L-9.4 12.9L-15.2 -4.9Z" fill="#afcfff"></path></g><g transform="translate(441 177)"><path d="M0 -7L6.7 -2.2L4.1 5.7L-4.1 5.7L-6.7 -2.2Z" fill="#afcfff"></path></g><g transform="translate(459 296)"><path d="M0 -5L4.8 -1.5L2.9 4L-2.9 4L-4.8 -1.5Z" fill="#afcfff"></path></g><g transform="translate(495 589)"><path d="M0 -10L9.5 -3.1L5.9 8.1L-5.9 8.1L-9.5 -3.1Z" fill="#afcfff"></path></g><g transform="translate(121 467)"><path d="M0 -17L16.2 -5.3L10 13.8L-10 13.8L-16.2 -5.3Z" fill="#afcfff"></path></g><g transform="translate(600 15)"><path d="M0 -4L3.8 -1.2L2.4 3.2L-2.4 3.2L-3.8 -1.2Z" fill="#afcfff"></path></g><g transform="translate(235 288)"><path d="M0 -18L17.1 -5.6L10.6 14.6L-10.6 14.6L-17.1 -5.6Z" fill="#afcfff"></path></g><g transform="translate(672 385)"><path d="M0 -7L6.7 -2.2L4.1 5.7L-4.1 5.7L-6.7 -2.2Z" fill="#afcfff"></path></g><g transform="translate(64 318)"><path d="M0 -5L4.8 -1.5L2.9 4L-2.9 4L-4.8 -1.5Z" fill="#afcfff"></path></g><g transform="translate(694 471)"><path d="M0 -15L14.3 -4.6L8.8 12.1L-8.8 12.1L-14.3 -4.6Z" fill="#afcfff"></path></g><g transform="translate(232 149)"><path d="M0 -12L11.4 -3.7L7.1 9.7L-7.1 9.7L-11.4 -3.7Z" fill="#afcfff"></path></g><g transform="translate(230 96)"><path d="M0 -12L11.4 -3.7L7.1 9.7L-7.1 9.7L-11.4 -3.7Z" fill="#afcfff"></path></g><g transform="translate(61 590)"><path d="M0 -7L6.7 -2.2L4.1 5.7L-4.1 5.7L-6.7 -2.2Z" fill="#afcfff"></path></g><g transform="translate(266 439)"><path d="M0 -9L8.6 -2.8L5.3 7.3L-5.3 7.3L-8.6 -2.8Z" fill="#afcfff"></path></g><g transform="translate(373 2)"><path d="M0 -12L11.4 -3.7L7.1 9.7L-7.1 9.7L-11.4 -3.7Z" fill="#afcfff"></path></g><g transform="translate(333 189)"><path d="M0 -2L1.9 -0.6L1.2 1.6L-1.2 1.6L-1.9 -0.6Z" fill="#afcfff"></path></g><g transform="translate(587 554)"><path d="M0 -19L18.1 -5.9L11.2 15.4L-11.2 15.4L-18.1 -5.9Z" fill="#afcfff"></path></g><g transform="translate(52 9)"><path d="M0 -11L10.5 -3.4L6.5 8.9L-6.5 8.9L-10.5 -3.4Z" fill="#afcfff"></path></g><g transform="translate(461 45)"><path d="M0 -11L10.5 -3.4L6.5 8.9L-6.5 8.9L-10.5 -3.4Z" fill="#afcfff"></path></g><g transform="translate(606 375)"><path d="M0 -18L17.1 -5.6L10.6 14.6L-10.6 14.6L-17.1 -5.6Z" fill="#afcfff"></path></g><g transform="translate(793 596)"><path d="M0 -7L6.7 -2.2L4.1 5.7L-4.1 5.7L-6.7 -2.2Z" fill="#afcfff"></path></g><g transform="translate(667 280)"><path d="M0 -16L15.2 -4.9L9.4 12.9L-9.4 12.9L-15.2 -4.9Z" fill="#afcfff"></path></g><g transform="translate(754 132)"><path d="M0 -4L3.8 -1.2L2.4 3.2L-2.4 3.2L-3.8 -1.2Z" fill="#afcfff"></path></g><g transform="translate(283 587)"><path d="M0 -11L10.5 -3.4L6.5 8.9L-6.5 8.9L-10.5 -3.4Z" fill="#afcfff"></path></g><g transform="translate(218 334)"><path d="M0 -10L9.5 -3.1L5.9 8.1L-5.9 8.1L-9.5 -3.1Z" fill="#afcfff"></path></g><g transform="translate(897 510)"><path d="M0 -3L2.9 -0.9L1.8 2.4L-1.8 2.4L-2.9 -0.9Z" fill="#afcfff"></path></g><g transform="translate(263 255)"><path d="M0 -15L14.3 -4.6L8.8 12.1L-8.8 12.1L-14.3 -4.6Z" fill="#afcfff"></path></g><g transform="translate(549 463)"><path d="M0 -5L4.8 -1.5L2.9 4L-2.9 4L-4.8 -1.5Z" fill="#afcfff"></path></g><g transform="translate(380 90)"><path d="M0 -3L2.9 -0.9L1.8 2.4L-1.8 2.4L-2.9 -0.9Z" fill="#afcfff"></path></g><g transform="translate(138 379)"><path d="M0 -19L18.1 -5.9L11.2 15.4L-11.2 15.4L-18.1 -5.9Z" fill="#afcfff"></path></g><g transform="translate(897 73)"><path d="M0 -20L19 -6.2L11.8 16.2L-11.8 16.2L-19 -6.2Z" fill="#afcfff"></path></g><g transform="translate(686 86)"><path d="M0 -4L3.8 -1.2L2.4 3.2L-2.4 3.2L-3.8 -1.2Z" fill="#afcfff"></path></g><g transform="translate(234 474)"><path d="M0 -18L17.1 -5.6L10.6 14.6L-10.6 14.6L-17.1 -5.6Z" fill="#afcfff"></path></g><g transform="translate(8 204)"><path d="M0 -15L14.3 -4.6L8.8 12.1L-8.8 12.1L-14.3 -4.6Z" fill="#afcfff"></path></g><g transform="translate(143 333)"><path d="M0 -3L2.9 -0.9L1.8 2.4L-1.8 2.4L-2.9 -0.9Z" fill="#afcfff"></path></g><g transform="translate(653 40)"><path d="M0 -15L14.3 -4.6L8.8 12.1L-8.8 12.1L-14.3 -4.6Z" fill="#afcfff"></path></g><g transform="translate(320 5)"><path d="M0 -9L8.6 -2.8L5.3 7.3L-5.3 7.3L-8.6 -2.8Z" fill="#afcfff"></path></g><g transform="translate(556 391)"><path d="M0 -5L4.8 -1.5L2.9 4L-2.9 4L-4.8 -1.5Z" fill="#afcfff"></path></g><g transform="translate(746 177)"><path d="M0 -19L18.1 -5.9L11.2 15.4L-11.2 15.4L-18.1 -5.9Z" fill="#afcfff"></path></g><g transform="translate(2 104)"><path d="M0 -17L16.2 -5.3L10 13.8L-10 13.8L-16.2 -5.3Z" fill="#afcfff"></path></g><g transform="translate(808 326)"><path d="M0 -3L2.9 -0.9L1.8 2.4L-1.8 2.4L-2.9 -0.9Z" fill="#afcfff"></path></g><g transform="translate(59 536)"><path d="M0 -11L10.5 -3.4L6.5 8.9L-6.5 8.9L-10.5 -3.4Z" fill="#afcfff"></path></g><g transform="translate(458 415)"><path d="M0 -8L7.6 -2.5L4.7 6.5L-4.7 6.5L-7.6 -2.5Z" fill="#afcfff"></path></g><g transform="translate(147 246)"><path d="M0 -3L2.9 -0.9L1.8 2.4L-1.8 2.4L-2.9 -0.9Z" fill="#afcfff"></path></g><g transform="translate(805 428)"><path d="M0 -3L2.9 -0.9L1.8 2.4L-1.8 2.4L-2.9 -0.9Z" fill="#afcfff"></path></g><g transform="translate(826 134)"><path d="M0 -17L16.2 -5.3L10 13.8L-10 13.8L-16.2 -5.3Z" fill="#afcfff"></path></g><g transform="translate(310 348)"><path d="M0 -12L11.4 -3.7L7.1 9.7L-7.1 9.7L-11.4 -3.7Z" fill="#afcfff"></path></g><g transform="translate(48 359)"><path d="M0 -10L9.5 -3.1L5.9 8.1L-5.9 8.1L-9.5 -3.1Z" fill="#afcfff"></path></g><g transform="translate(174 159)"><path d="M0 -16L15.2 -4.9L9.4 12.9L-9.4 12.9L-15.2 -4.9Z" fill="#afcfff"></path></g><g transform="translate(304 521)"><path d="M0 -5L4.8 -1.5L2.9 4L-2.9 4L-4.8 -1.5Z" fill="#afcfff"></path></g><g transform="translate(677 592)"><path d="M0 -19L18.1 -5.9L11.2 15.4L-11.2 15.4L-18.1 -5.9Z" fill="#afcfff"></path></g><g transform="translate(321 261)"><path d="M0 -11L10.5 -3.4L6.5 8.9L-6.5 8.9L-10.5 -3.4Z" fill="#afcfff"></path></g><g transform="translate(662 547)"><path d="M0 -6L5.7 -1.9L3.5 4.9L-3.5 4.9L-5.7 -1.9Z" fill="#afcfff"></path></g><g transform="translate(136 590)"><path d="M0 -20L19 -6.2L11.8 16.2L-11.8 16.2L-19 -6.2Z" fill="#afcfff"></path></g></g></svg>