<svg id="visual" viewBox="0 0 960 540" width="960" height="540" xmlns="http://www.w3.org/2000/svg" xmlns:xlink="http://www.w3.org/1999/xlink" version="1.1"><rect x="0" y="0" width="960" height="540" fill="#001e35"></rect><defs><linearGradient id="grad1_0" x1="43.8%" y1="0%" x2="100%" y2="100%"><stop offset="14.444444444444446%" stop-color="#001e35" stop-opacity="1"></stop><stop offset="85.55555555555554%" stop-color="#001e35" stop-opacity="1"></stop></linearGradient></defs><defs><linearGradient id="grad2_0" x1="0%" y1="0%" x2="56.3%" y2="100%"><stop offset="14.444444444444446%" stop-color="#001e35" stop-opacity="1"></stop><stop offset="85.55555555555554%" stop-color="#001e35" stop-opacity="1"></stop></linearGradient></defs><g transform="translate(960, 0)"><path d="M0 423C-70 449.6 -140 476.2 -186 449C-231.9 421.8 -253.8 340.8 -287.1 287.1C-320.4 233.4 -365.2 207.1 -395.4 163.8C-425.7 120.5 -441.3 60.2 -457 0L0 0Z" fill="#f3f3f3"></path></g><g transform="translate(0, 540)"><path d="M0 -384C71.3 -419.1 142.7 -454.1 175.7 -424.1C208.6 -394 203.3 -298.8 255.3 -255.3C307.2 -211.7 416.5 -219.9 449 -186C481.5 -152.1 437.3 -76 393 0L0 0Z" fill="#f3f3f3"></path></g></svg>