<svg id="visual" viewBox="0 0 960 540" width="960" height="540" xmlns="http://www.w3.org/2000/svg" xmlns:xlink="http://www.w3.org/1999/xlink" version="1.1"><rect x="0" y="0" width="960" height="540" fill="#7b7b7b"></rect><path d="M0 322L22.8 330.5C45.7 339 91.3 356 137 362.7C182.7 369.3 228.3 365.7 274 361.8C319.7 358 365.3 354 411.2 359.7C457 365.3 503 380.7 548.8 382.8C594.7 385 640.3 374 686 371.8C731.7 369.7 777.3 376.3 823 370.7C868.7 365 914.3 347 937.2 338L960 329L960 541L937.2 541C914.3 541 868.7 541 823 541C777.3 541 731.7 541 686 541C640.3 541 594.7 541 548.8 541C503 541 457 541 411.2 541C365.3 541 319.7 541 274 541C228.3 541 182.7 541 137 541C91.3 541 45.7 541 22.8 541L0 541Z" fill="#536ab0"></path><path d="M0 403L22.8 395.7C45.7 388.3 91.3 373.7 137 371.7C182.7 369.7 228.3 380.3 274 389.2C319.7 398 365.3 405 411.2 408.8C457 412.7 503 413.3 548.8 409.2C594.7 405 640.3 396 686 393.5C731.7 391 777.3 395 823 390.2C868.7 385.3 914.3 371.7 937.2 364.8L960 358L960 541L937.2 541C914.3 541 868.7 541 823 541C777.3 541 731.7 541 686 541C640.3 541 594.7 541 548.8 541C503 541 457 541 411.2 541C365.3 541 319.7 541 274 541C228.3 541 182.7 541 137 541C91.3 541 45.7 541 22.8 541L0 541Z" fill="#405598"></path><path d="M0 456L22.8 454.5C45.7 453 91.3 450 137 445.7C182.7 441.3 228.3 435.7 274 427.7C319.7 419.7 365.3 409.3 411.2 412C457 414.7 503 430.3 548.8 430.8C594.7 431.3 640.3 416.7 686 412.3C731.7 408 777.3 414 823 414.7C868.7 415.3 914.3 410.7 937.2 408.3L960 406L960 541L937.2 541C914.3 541 868.7 541 823 541C777.3 541 731.7 541 686 541C640.3 541 594.7 541 548.8 541C503 541 457 541 411.2 541C365.3 541 319.7 541 274 541C228.3 541 182.7 541 137 541C91.3 541 45.7 541 22.8 541L0 541Z" fill="#2d4080"></path><path d="M0 463L22.8 464.3C45.7 465.7 91.3 468.3 137 467C182.7 465.7 228.3 460.3 274 459C319.7 457.7 365.3 460.3 411.2 459.5C457 458.7 503 454.3 548.8 454C594.7 453.7 640.3 457.3 686 460.8C731.7 464.3 777.3 467.7 823 471.8C868.7 476 914.3 481 937.2 483.5L960 486L960 541L937.2 541C914.3 541 868.7 541 823 541C777.3 541 731.7 541 686 541C640.3 541 594.7 541 548.8 541C503 541 457 541 411.2 541C365.3 541 319.7 541 274 541C228.3 541 182.7 541 137 541C91.3 541 45.7 541 22.8 541L0 541Z" fill="#192c69"></path><path d="M0 514L22.8 514.3C45.7 514.7 91.3 515.3 137 511.3C182.7 507.3 228.3 498.7 274 495.8C319.7 493 365.3 496 411.2 495.7C457 495.3 503 491.7 548.8 488.8C594.7 486 640.3 484 686 486C731.7 488 777.3 494 823 496C868.7 498 914.3 496 937.2 495L960 494L960 541L937.2 541C914.3 541 868.7 541 823 541C777.3 541 731.7 541 686 541C640.3 541 594.7 541 548.8 541C503 541 457 541 411.2 541C365.3 541 319.7 541 274 541C228.3 541 182.7 541 137 541C91.3 541 45.7 541 22.8 541L0 541Z" fill="#001a53"></path></svg>